# AST/ASF file generated using VICON BodyLanguage
# -----------------------------------------------
:version 1.10
:name VICON
:units
  mass 1.0
  length 0.45
  angle deg
:documentation
   .ast/.asf automatically generated from VICON data using
   VICON BodyBuilder and BodyLanguage model FoxedUp or BRILLIANT.MOD
:root
   order TX TY TZ RX RY RZ
   axis XYZ
   position 0 0 0  
   orientation 0 0 0 
:bonedata
  begin
     id 1 
     name lhipjoint
     direction 0.702568 -0.596508 0.388042 
     length 2.56661 
     axis 0 0 0  XYZ
  end
  begin
     id 2 
     name lfemur
     direction 0.34202 -0.939693 0  
     length 6.58374  
     axis 0 0 20  XYZ
    dof rx ry rz
    limits (-160.0 20.0)
           (-70.0 70.0)
           (-60.0 70.0)
  end
  begin
     id 3 
     name ltibia
     direction 0.34202 -0.939693 0   
     length 6.62538   
     axis 0 0 20   XYZ
    dof rx
    limits (-10.0 170.0)
  end
  begin
     id 4 
     name lfoot
     direction 0.10455 -0.287249 0.952133   
     length 2.26699   
     axis -90 7.62852e-016 20   XYZ
    dof rx rz
    limits (-45.0 90.0)
           (-70.0 20.0)
  end
  begin
     id 5 
     name ltoes
     direction 1.53572e-011 -4.22322e-011 1   
     length 1.12949   
     axis -90 7.62852e-016 20   XYZ
    dof rx
    limits (-90.0 20.0)
  end
  begin
     id 6 
     name rhipjoint
     direction -0.728055 -0.574632 0.373811   
     length 2.66432  
     axis 0 0 0  XYZ 
  end
  begin
     id 7 
     name rfemur
     direction -0.34202 -0.939693 0   
     length 6.66732   
     axis 0 0 -20   XYZ
    dof rx ry rz
    limits (-160.0 20.0)
           (-70.0 70.0)
           (-70.0 60.0)
  end
  begin
     id 8 
     name rtibia
     direction -0.34202 -0.939693 0   
     length 6.59288   
     axis 0 0 -20   XYZ
    dof rx
    limits (-10.0 170.0)
 end
 begin
     id 9 
     name rfoot
     direction -0.119193 -0.327479 0.93731   
     length 2.38061  
     axis -90 -7.62852e-016 -20   XYZ
    dof rx rz
    limits (-45.0 90.0)
           (-20.0 70.0)
  end
  begin
     id 10 
     name rtoes
     direction -1.53547e-011 -4.21827e-011 1   
     length 1.17899   
     axis -90 -7.62852e-016 -20   XYZ
    dof rx
    limits (-90.0 20.0)
  end
  begin
     id 11 
     name lowerback
     direction -0.000416114 0.999912 -0.0132284   
     length 2.12109   
     axis 0 0 0   XYZ
    dof rx ry rz
    limits (-20.0 45.0)
           (-30.0 30.0)
           (-30.0 30.0)
  end
  begin
     id 12 
     name upperback
     direction -0.00136371 0.99809 0.0617608   
     length 2.10067   
     axis 0 0 0   XYZ
    dof rx ry rz
    limits (-20.0 45.0)
           (-30.0 30.0)
           (-30.0 30.0)
  end
  begin
     id 13 
     name thorax
     direction -3.43026e-005 0.997776 0.0666515   
     length 2.10618   
     axis 0 0 0   XYZ
    dof rx ry rz
    limits (-20.0 45.0)
           (-30.0 30.0)
           (-30.0 30.0)
  end
  begin
     id 14 
     name lowerneck
     direction 0.0398646 0.998418 0.0396592   
     length 1.83817   
     axis 0 0 0   XYZ
    dof rx ry rz
    limits (-20.0 45.0)
           (-30.0 30.0)
           (-30.0 30.0)
  end
  begin
     id 15 
     name upperneck
     direction -0.0367268 0.961527 -0.272244   
     length 1.81975   
     axis 0 0 0   XYZ
    dof rx ry rz
    limits (-20.0 45.0)
           (-30.0 30.0)
           (-30.0 30.0)
  end
  begin
     id 16
     name head
     direction -0.0182665 0.99536 -0.0944669  
     length 1.86026  
     axis 0 0 0   XYZ
    dof rx ry rz
    limits (-20.0 45.0)
           (-30.0 30.0)
           (-30.0 30.0)
  end
  begin
     id 17 
     name lclavicle
     direction 0.924239 0.361045 0.124212  
     length 3.26878  
     axis 0 0 0   XYZ
    dof ry rz
    limits (-20.0 10.0)
           (0.0 20.0)
  end
  begin
     id 18 
     name lhumerus
     direction 1 -4.48968e-011 -2.56583e-027   
     length 4.58538   
     axis 180 -30 -90   XYZ
    dof rx ry rz
    limits (-60.0 90.0)
           (-90.0 90.0)
           (-90.0 90.0)
  end
  begin
     id 19
     name lradius
     direction 1 -4.4898e-011 -5.50375e-027   
     length 2.68935   
     axis 180 -30 -90   XYZ
    dof rx
    limits (-10.0 170.0)
  end
  begin
     id 20
     name lwrist
     direction 1 -4.48939e-011 -1.48955e-026   
     length 1.34468   
     axis 9.0955e-015 90 90   XYZ
    dof ry
    limits (-180.0 0.0)
 end
  begin
     id 21 
     name lhand
     direction 1 -4.48936e-011 -2.97907e-026   
     length 0.585058   
     axis 1.90115e-014 90 90   XYZ
    dof rx rz
    limits (-90.0 90.0)
           (-45.0 45.0)
  end
  begin
     id 22 
     name lfingers
     direction 1 -4.49082e-011 -5.96235e-026   
     length 0.471689   
     axis 3.80223e-014 90 90   XYZ
    dof rx
    limits (0.0 90.0)
  end
  begin
     id 23
     name lthumb
     direction 0.707107 -6.3489e-011 0.707107   
     length 0.677253   
     axis -90 45 -3.84942e-014   XYZ
    dof rx rz
    limits (-45.0 45.0)
           (-45.0 45.0)
  end
  begin
     id 24 
     name rclavicle
     direction -0.923098 0.371783 0.0983239   
     length 3.19656  
     axis 0 0 0   XYZ 
    dof ry rz
    limits (-10.0 20.0)
           (-20.0 0.0)
  end
  begin
     id 25 
     name rhumerus
     direction -1 -4.48976e-011 -2.5492e-027  
     length 4.4745   
     axis 180 30 90   XYZ
    dof rx ry rz
    limits (-90.0 60.0)
           (-90.0 90.0)
           (-90.0 90.0)
  end
  begin
     id 26 
     name rradius
     direction -1 -4.48941e-011 -4.36555e-027   
     length 2.93896   
     axis 180 30 90   XYZ
    dof rx
    limits (-10.0 170.0)
  end
  begin
     id 27 
     name rwrist
     direction -1 -4.49044e-011 -1.49032e-026   
     length 1.46948   
     axis 9.0955e-015 -90 -90   XYZ
    dof ry
    limits (-180.0 0.0)
  end
  begin
     id 28
     name rhand
     direction -1 -4.48826e-011 -2.97749e-026   
     length 0.405092   
     axis 1.90115e-014 -90 -90   XYZ
    dof rx rz
    limits (-90.0 90.0)
           (-45.0 45.0)
  end
  begin
     id 29
     name rfingers
     direction -1 -4.49209e-011 -5.96602e-026   
     length 0.326596   
     axis 3.80223e-014 -90 -90   XYZ
    dof rx
    limits (0.0 90.0)
  end
  begin
     id 30
     name rthumb
     direction -0.707107 -6.34776e-011 0.707107   
     length 0.468928   
     axis -90 -45 3.84942e-014   XYZ
    dof rx rz
    limits (-45.0 45.0)
           (-45.0 45.0)
  end
:hierarchy
  begin
    root lhipjoint rhipjoint lowerback
    lhipjoint lfemur
    lfemur ltibia
    ltibia lfoot
    lfoot ltoes
    rhipjoint rfemur
    rfemur rtibia
    rtibia rfoot
    rfoot rtoes
    lowerback upperback
    upperback thorax
    thorax lowerneck lclavicle rclavicle
    lowerneck upperneck
    upperneck head
    lclavicle lhumerus
    lhumerus lradius
    lradius lwrist
    lwrist lhand lthumb
    lhand lfingers
    rclavicle rhumerus
    rhumerus rradius
    rradius rwrist
    rwrist rhand rthumb
    rhand rfingers
  end

#!OML:ASF H:\Punching\Project 1\Capture day 1\Session 1\female.ASF
:FULLY-SPECIFIED
:DEGREES
635
root -0.971759 15.6192 2.86526 -31.1971 -36.8071 22.0582
lowerback 5.95894 1.68114 5.24134
upperback 2.76881 2.3326 -10.0614
thorax 0.231592 1.2876 -14.1026
lowerneck 4.58565 13.4203 14.9832
upperneck 39.794 23.8683 -14.3438
head 18.2237 10.856 -5.62387
rclavicle -5.40197e-014 5.1684e-014
rhumerus 12.6629 40.4613 -74.3104
rradius 124.141
rwrist -15.6662
rhand -27.8146 10.1085
rfingers 7.12502
rthumb -1.20683 -19.8678
lclavicle -5.40197e-014 5.1684e-014
lhumerus -10.2992 -1.0642 54.383
lradius 141.29
lwrist 3.291
lhand -29.4993 5.54574
lfingers 7.12502
lthumb -2.83392 35.5067
rfemur 7.9017 12.0996 14.3832
rtibia 34.2545
rfoot -19.3849 -7.6128
rtoes 15.9486
lfemur -142.665 -7.25053 -92.9617
ltibia 22.7511
lfoot -102.09 150.126
ltoes 54.9402
636
root -0.975435 15.6085 2.88297 -31.3859 -37.0992 22.4772
lowerback 5.75681 1.67432 5.20151
upperback 2.75267 2.31697 -10.1228
thorax 0.32488 1.28307 -14.1414
lowerneck 4.8128 13.4859 14.939
upperneck 39.957 24.0265 -14.4153
head 18.3307 10.9137 -5.64968
rclavicle -2.34566e-014 -3.33958e-014
rhumerus 12.6124 40.6311 -74.4273
rradius 123.834
rwrist -15.6776
rhand -27.8338 10.0893
rfingers 7.12502
rthumb -1.22536 -19.8869
lclavicle -2.34566e-014 -3.33958e-014
lhumerus -10.4438 -1.01696 54.6519
lradius 141.275
lwrist 3.29523
lhand -29.2918 5.47652
lfingers 7.12502
lthumb -2.63351 35.44
rfemur 7.54577 12.169 14.0641
rtibia 34.6999
rfoot -19.6956 -7.39448
rtoes 15.9823
lfemur -142.997 0.0845504 -84.4744
ltibia 20.7245
lfoot -107.946 164.805
ltoes 56.2854
637
root -0.977481 15.5984 2.89959 -31.6358 -37.3137 22.8827
lowerback 5.66911 1.64214 5.15047
upperback 2.74012 2.26583 -10.2033
thorax 0.348302 1.25617 -14.2003
lowerneck 5.02474 13.5454 14.9324
upperneck 40.145 24.1588 -14.4409
head 18.4476 10.9683 -5.66475
rclavicle 6.50026e-014 7.95139e-015
rhumerus 12.5628 40.7295 -74.5687
rradius 123.479
rwrist -15.7604
rhand -27.7802 10.002
rfingers 7.12502
rthumb -1.17367 -19.9745
lclavicle 6.50026e-014 7.95139e-015
lhumerus -10.6565 -1.05197 54.9429
lradius 141.277
lwrist 3.32829
lhand -29.2155 5.24646
lfingers 7.12502
lthumb -2.55982 35.2108
rfemur 7.20689 12.1125 13.6822
rtibia 35.2477
rfoot -19.9908 -7.03708
rtoes 16.0358
lfemur -143.05 2.9944 -81.4903
ltibia 20.1073
lfoot -110.058 170.583
ltoes 56.6914
638
root -0.978998 15.5886 2.9141 -31.9469 -37.4483 23.2512
lowerback 5.7034 1.58239 5.07797
upperback 2.74562 2.17611 -10.294
thorax 0.311032 1.20623 -14.2616
lowerneck 5.21117 13.5976 14.9587
upperneck 40.3401 24.2643 -14.433
head 18.5668 11.0175 -5.6722
rclavicle 2.27608e-014 2.66371e-014
rhumerus 12.5282 40.7592 -74.7114
rradius 123.108
rwrist -15.9038
rhand -27.6868 9.90097
rfingers 7.12502
rthumb -1.08345 -20.076
lclavicle 2.27608e-014 2.66371e-014
lhumerus -10.9254 -1.22305 55.2553
lradius 141.349
lwrist 3.3177
lhand -29.2899 5.18147
lfingers 7.12502
lthumb -2.63169 35.145
rfemur 6.94505 11.9607 13.2824
rtibia 35.8312
rfoot -20.256 -6.58858
rtoes 16.1205
lfemur -143.5 1.73108 -83.3265
ltibia 20.776
lfoot -108.621 169.233
ltoes 56.5891
639
root -0.981076 15.5786 2.92645 -32.294 -37.5217 23.5392
lowerback 5.84906 1.50312 4.99901
upperback 2.78808 2.06067 -10.3812
thorax 0.242774 1.1426 -14.3176
lowerneck 5.3386 13.6391 15.0122
upperneck 40.5319 24.3358 -14.3949
head 18.6871 11.0559 -5.67068
rclavicle -1.27222e-014 3.18055e-014
rhumerus 12.535 40.7043 -74.8257
rradius 122.745
rwrist -16.0712
rhand -27.5852 9.77146
rfingers 7.12502
rthumb -0.985257 -20.206
lclavicle -1.27222e-014 3.18055e-014
lhumerus -11.1801 -1.51752 55.5817
lradius 141.474
lwrist 3.26478
lhand -29.4912 5.29137
lfingers 7.12502
lthumb -2.82607 35.2524
rfemur 6.80672 11.7611 12.9392
rtibia 36.3816
rfoot -20.4731 -6.12862
rtoes 16.2048
lfemur -143.991 -3.06987 -89.2575
ltibia 22.4254
lfoot -104.301 161.373
ltoes 55.9802
640
root -0.984689 15.5685 2.93666 -32.6565 -37.5484 23.732
lowerback 6.08301 1.409 4.90825
upperback 2.87054 1.92588 -10.451
thorax 0.160728 1.06955 -14.3468
lowerneck 5.41508 13.6698 15.0798
upperneck 40.7027 24.3807 -14.3504
head 18.8 11.0838 -5.6679
rclavicle 8.21478e-014 -7.95139e-015
rhumerus 12.5923 40.589 -74.8969
rradius 122.412
rwrist -16.2287
rhand -27.5104 9.64345
rfingers 7.12502
rthumb -0.913082 -20.3343
lclavicle 8.21478e-014 -7.95139e-015
lhumerus -11.3983 -1.92956 55.9205
lradius 141.657
lwrist 3.13495
lhand -29.7759 5.64935
lfingers 7.12502
lthumb -3.101 35.6066
rfemur 6.81793 11.5562 12.694
rtibia 36.8419
rfoot -20.6382 -5.72627
rtoes 16.2764
lfemur -61.1273 10.3165 81.5088
ltibia 24.746
lfoot -78.5498 15.5424
ltoes 54.5322
641
root -0.990255 15.5584 2.94522 -32.9981 -37.5592 23.8108
lowerback 6.37502 1.31429 4.83392
upperback 2.99147 1.79324 -10.4959
thorax 0.0874316 0.999937 -14.3572
lowerneck 5.42972 13.686 15.1509
upperneck 40.8493 24.3935 -14.3013
head 18.9023 11.0968 -5.66323
rclavicle -8.00108e-015 1.70955e-014
rhumerus 12.69 40.4121 -74.9226
rradius 122.126
rwrist -16.3335
rhand -27.4823 9.51546
rfingers 7.12502
rthumb -0.885872 -20.4624
lclavicle -8.00108e-015 1.70955e-014
lhumerus -11.5396 -2.42415 56.2656
lradius 141.855
lwrist 2.92288
lhand -30.0905 6.16315
lfingers 7.12502
lthumb -3.40485 36.1157
rfemur 6.97735 11.3918 12.5936
rtibia 37.1668
rfoot -20.7479 -5.44346
rtoes 16.3322
lfemur -65.7134 18.2813 70.0086
ltibia 27.5159
lfoot -65.3341 31.3414
ltoes 51.4552
642
root -0.997608 15.5487 2.95255 -33.2765 -37.5863 23.7653
lowerback 6.68301 1.22398 4.81105
upperback 3.12897 1.67158 -10.5069
thorax 0.0267683 0.938239 -14.3597
lowerneck 5.41661 13.6915 15.2152
upperneck 40.9715 24.3861 -14.256
head 18.9891 11.0998 -5.6597
rclavicle -2.59414e-014 1.66979e-014
rhumerus 12.795 40.2158 -74.9244
rradius 121.892
rwrist -16.3579
rhand -27.5199 9.43206
rfingers 7.12502
rthumb -0.922261 -20.5457
lclavicle -2.59414e-014 1.66979e-014
lhumerus -11.6285 -2.96529 56.6151
lradius 142.033
lwrist 2.61522
lhand -30.3943 6.76657
lfingers 7.12502
lthumb -3.69823 36.7142
rfemur 7.25796 11.3014 12.6662
rtibia 37.3265
rfoot -20.8029 -5.30871
rtoes 16.3758
lfemur -72.0165 25.1759 57.5583
ltibia 30.6188
lfoot -44.3827 45.4675
ltoes 45.6517
643
root -1.00599 15.5399 2.95931 -33.4364 -37.6579 23.5841
lowerback 6.96296 1.14404 4.88378
upperback 3.26169 1.57206 -10.4819
thorax -0.0146745 0.890546 -14.379
lowerneck 5.39562 13.6834 15.2654
upperneck 41.0677 24.3573 -14.2191
head 19.0532 11.0921 -5.66061
rclavicle 4.45278e-014 -4.92986e-014
rhumerus 12.8814 40.0083 -74.9197
rradius 121.728
rwrist -16.329
rhand -27.5668 9.34393
rfingers 7.12502
rthumb -0.967518 -20.6336
lclavicle 4.45278e-014 -4.92986e-014
lhumerus -11.6508 -3.4712 56.9492
lradius 142.136
lwrist 2.25528
lhand -30.601 7.21347
lfingers 7.12502
lthumb -3.89785 37.1576
rfemur 7.60632 11.2989 12.9255
rtibia 37.3122
rfoot -20.8116 -5.32372
rtoes 16.4483
lfemur -79.1661 30.1151 45.4741
ltibia 33.9962
lfoot -15.7999 50.6919
ltoes 36.7736
644
root -1.01439 15.5328 2.96541 -33.4648 -37.7747 23.2892
lowerback 7.18641 1.06944 5.05743
upperback 3.3749 1.48814 -10.4256
thorax -0.0384231 0.852953 -14.4233
lowerneck 5.3787 13.6733 15.2921
upperneck 41.1456 24.3283 -14.1917
head 19.1014 11.0811 -5.66194
rclavicle 2.61402e-014 7.35503e-014
rhumerus 12.9501 39.8228 -74.9131
rradius 121.633
rwrist -16.2877
rhand -27.6046 9.273
rfingers 7.12502
rthumb -1.00406 -20.7044
lclavicle 2.61402e-014 7.35503e-014
lhumerus -11.6591 -3.92353 57.2729
lradius 142.173
lwrist 1.83782
lhand -30.7114 7.52268
lfingers 7.12502
lthumb -4.00445 37.4648
rfemur 7.97687 11.3717 13.3352
rtibia 37.1412
rfoot -20.7853 -5.45856
rtoes 16.5459
lfemur -86.2131 33.1572 34.6691
ltibia 37.6312
lfoot 7.69405 46.2731
ltoes 25.8511
645
root -1.02158 15.527 2.97143 -33.3266 -37.9353 22.881
lowerback 7.33519 0.998215 5.34185
upperback 3.44984 1.41749 -10.3354
thorax -0.0550092 0.823115 -14.4956
lowerneck 5.37719 13.6609 15.2833
upperneck 41.2122 24.302 -14.1747
head 19.1342 11.0666 -5.66331
rclavicle 4.87022e-014 -1.16885e-013
rhumerus 12.9948 39.6628 -74.895
rradius 121.612
rwrist -16.2622
rhand -27.5882 9.16979
rfingers 7.12502
rthumb -0.98821 -20.8077
lclavicle 4.87022e-014 -1.16885e-013
lhumerus -11.6571 -4.30031 57.5881
lradius 142.126
lwrist 1.41146
lhand -30.7093 7.64662
lfingers 7.12502
lthumb -4.00245 37.5888
rfemur 8.30355 11.4923 13.8658
rtibia 36.8574
rfoot -20.741 -5.67267
rtoes 16.7002
lfemur -92.5792 34.8085 25.5577
ltibia 41.515
lfoot 20.224 38.3449
ltoes 15.711
646
root -1.02677 15.5222 2.97708 -33.0349 -38.0956 22.4167
lowerback 7.40229 0.920828 5.67775
upperback 3.46769 1.34121 -10.2258
thorax -0.0879321 0.787961 -14.5744
lowerneck 5.41832 13.6481 15.2404
upperneck 41.2681 24.2887 -14.1829
head 19.1529 11.0534 -5.67258
rclavicle -1.63997e-014 2.18663e-014
rhumerus 13.0143 39.5594 -74.8649
rradius 121.654
rwrist -16.2986
rhand -27.5271 9.08153
rfingers 7.12502
rthumb -0.929209 -20.8962
lclavicle -1.63997e-014 2.18663e-014
lhumerus -11.7243 -4.6454 57.9025
lradius 142.073
lwrist 0.944704
lhand -30.6159 7.80788
lfingers 7.12502
lthumb -3.91224 37.7517
rfemur 8.52803 11.6134 14.4181
rtibia 36.5234
rfoot -20.6953 -5.91525
rtoes 16.8639
lfemur -98.0721 35.5507 18.1082
ltibia 45.6457
lfoot 26.4228 30.6695
ltoes 7.4889
647
root -1.02964 15.5177 2.98207 -32.6197 -38.2153 21.9442
lowerback 7.39014 0.833124 6.01135
upperback 3.4283 1.24862 -10.1117
thorax -0.143443 0.740405 -14.6431
lowerneck 5.50117 13.637 15.1662
upperneck 41.3213 24.2909 -14.2118
head 19.1632 11.0429 -5.68788
rclavicle 4.28381e-014 -3.33958e-014
rhumerus 13.0216 39.521 -74.8163
rradius 121.737
rwrist -16.4052
rhand -27.4379 9.02468
rfingers 7.12502
rthumb -0.843028 -20.9534
lclavicle 4.28381e-014 -3.33958e-014
lhumerus -11.876 -4.95151 58.208
lradius 142.034
lwrist 0.511137
lhand -30.4607 7.95344
lfingers 7.12502
lthumb -3.76238 37.9
rfemur 8.61163 11.6953 14.9138
rtibia 36.2146
rfoot -20.6706 -6.14753
rtoes 17.0141
lfemur -102.728 35.7269 12.0612
ltibia 49.9971
lfoot 29.6284 24.119
ltoes 1.18823
